<?xml version="1.0" encoding="utf-8"?>
<!-- Generator: Adobe Illustrator 23.0.0, SVG Export Plug-In . SVG Version: 6.00 Build 0)  -->
<svg version="1.1" id="Layer_1" xmlns="http://www.w3.org/2000/svg" xmlns:xlink="http://www.w3.org/1999/xlink" x="0px" y="0px"
	 viewBox="0 0 121.5 121.5" style="enable-background:new 0 0 121.5 121.5;" xml:space="preserve">
<style type="text/css">
	.st0{fill:#F8F9F9;}
	.st1{fill:#1D2525;}
</style>
<g>
	<rect x="364.1" class="st0" width="121.5" height="121.5"/>
	<g>
		<g>
			<polygon class="st1" points="451.4,59.1 440.8,77.6 430.1,59.1 408,97.5 409.7,97.5 423.1,74.4 432.8,91.3 433.7,92.9 
				441.7,79.1 444.4,74.4 457.7,97.5 473.6,97.5 			"/>
			<path class="st1" d="M419.5,40.6L397.3,79h1.7l2.8-4.9h21l2.8,4.9h15.9L419.5,40.6z M402.9,72.3l9.5-16.4l9.5,16.4H402.9z"/>
		</g>
		<polygon class="st1" points="418.6,24 418.6,40.4 392,40.4 392,24 376.1,24 376.1,40.4 376.1,42.1 376.1,68.3 392,68.3 392,42.1 
			418.6,42.1 418.6,65.1 420.4,65.1 420.4,42.1 420.4,40.4 420.4,24 		"/>
	</g>
</g>
<g>
	<rect x="0" y="-3.5" class="st1" width="121.5" height="128.5"/>
	<g>
		<g>
			<polygon class="st0" points="87.4,59.1 76.7,77.6 66.1,59.1 43.9,97.5 45.7,97.5 59,74.4 68.8,91.3 69.6,92.9 77.6,79.1 
				80.3,74.4 93.6,97.5 109.5,97.5 			"/>
			<path class="st0" d="M55.4,40.6L33.2,79H35l2.8-4.9h21l2.8,4.9h15.9L55.4,40.6z M38.8,72.3l9.5-16.4l9.5,16.4H38.8z"/>
		</g>
		<polygon class="st0" points="54.5,24 54.5,40.4 27.9,40.4 27.9,24 12,24 12,40.4 12,42.1 12,68.3 27.9,68.3 27.9,42.1 54.5,42.1 
			54.5,65.1 56.3,65.1 56.3,42.1 56.3,40.4 56.3,24 		"/>
	</g>
</g>
</svg>
