<?xml version="1.0" encoding="utf-8"?>
<!-- Generator: Adobe Illustrator 23.0.0, SVG Export Plug-In . SVG Version: 6.00 Build 0)  -->
<svg version="1.1" id="Layer_1" xmlns="http://www.w3.org/2000/svg" xmlns:xlink="http://www.w3.org/1999/xlink" x="0px" y="0px"
	 viewBox="0 0 121.5 121.5" style="enable-background:new 0 0 121.5 121.5;" xml:space="preserve">
<style type="text/css">
	.st0{fill:#F8F9F9;}
	.st1{fill:#1D2525;}
</style>
<g>
	<rect x="0" y="0" class="st0" width="121.5" height="121.5"/>
	<g>
		<g>
			<polygon class="st1" points="87.4,59.1 76.7,77.6 66.1,59.1 43.9,97.5 45.7,97.5 59,74.4 68.8,91.3 69.6,92.9 77.6,79.1 
				80.3,74.4 93.6,97.5 109.5,97.5 			"/>
			<path class="st1" d="M55.4,40.6L33.2,79H35l2.8-4.9h21l2.8,4.9h15.9L55.4,40.6z M38.8,72.3l9.5-16.4l9.5,16.4H38.8z"/>
		</g>
		<polygon class="st1" points="54.5,24 54.5,40.4 27.9,40.4 27.9,24 12,24 12,40.4 12,42.1 12,68.3 27.9,68.3 27.9,42.1 54.5,42.1 
			54.5,65.1 56.3,65.1 56.3,42.1 56.3,40.4 56.3,24 		"/>
	</g>
</g>
<g>
	<rect x="166.1" y="-0.1" class="st1" width="121.5" height="128.5"/>
	<g>
		<g>
			<polygon class="st0" points="253.5,62.5 242.9,80.9 232.2,62.5 210.1,100.9 211.8,100.9 225.1,77.8 234.9,94.7 235.8,96.2 
				243.7,82.5 246.4,77.8 259.8,100.9 275.7,100.9 			"/>
			<path class="st0" d="M221.5,44l-22.1,38.4h1.7l2.8-4.9h21l2.8,4.9h15.9L221.5,44z M205,75.7l9.5-16.4l9.5,16.4H205z"/>
		</g>
		<polygon class="st0" points="220.7,27.4 220.7,43.7 194,43.7 194,27.4 178.1,27.4 178.1,43.7 178.1,45.5 178.1,71.7 194,71.7 
			194,45.5 220.7,45.5 220.7,68.4 222.4,68.4 222.4,45.5 222.4,43.7 222.4,27.4 		"/>
	</g>
</g>
</svg>
